<mxfile host="app.diagrams.net" modified="2023-01-06T10:39:46.377Z" agent="5.0 (Windows NT 10.0; Win64; x64) AppleWebKit/537.36 (KHTML, like Gecko) Chrome/108.0.0.0 YaBrowser/23.1.0.2539 (beta) Yowser/2.5 Safari/537.36" version="20.8.1" etag="rvdHzdBAQLoro5l9-wEK" type="github">
  <diagram id="1tASOis9zuE5EogLw_uP" name="Page-1">
    <mxGraphModel dx="832" dy="465" grid="1" gridSize="10" guides="1" tooltips="1" connect="1" arrows="1" fold="1" page="1" pageScale="1" pageWidth="850" pageHeight="1100" math="0" shadow="0">
      <root>
        <mxCell id="0" />
        <mxCell id="1" parent="0" />
        <mxCell id="O3Q1GPiPXJRiCr2cx9cS-3" value="user" style="shape=umlActor;verticalLabelPosition=bottom;verticalAlign=top;html=1;outlineConnect=0;" vertex="1" parent="1">
          <mxGeometry x="220" y="1000" width="30" height="60" as="geometry" />
        </mxCell>
        <mxCell id="O3Q1GPiPXJRiCr2cx9cS-4" value="BlockChain" style="ellipse;whiteSpace=wrap;html=1;" vertex="1" parent="1">
          <mxGeometry x="670" y="990" width="120" height="80" as="geometry" />
        </mxCell>
        <mxCell id="O3Q1GPiPXJRiCr2cx9cS-5" value="" style="endArrow=block;html=1;strokeWidth=2;rounded=0;jumpSize=10;jumpStyle=line;dashed=1;endFill=1;" edge="1" parent="1" source="O3Q1GPiPXJRiCr2cx9cS-8" target="O3Q1GPiPXJRiCr2cx9cS-9">
          <mxGeometry width="50" height="50" relative="1" as="geometry">
            <mxPoint x="1160.2900952026148" y="1335.5175545573568" as="sourcePoint" />
            <mxPoint x="840" y="990" as="targetPoint" />
          </mxGeometry>
        </mxCell>
        <mxCell id="O3Q1GPiPXJRiCr2cx9cS-6" value="&amp;lt;intclude&amp;gt;" style="edgeLabel;html=1;align=center;verticalAlign=middle;resizable=0;points=[];" connectable="0" vertex="1" parent="O3Q1GPiPXJRiCr2cx9cS-5">
          <mxGeometry x="0.1667" y="1" relative="1" as="geometry">
            <mxPoint x="-26" y="-5" as="offset" />
          </mxGeometry>
        </mxCell>
        <mxCell id="O3Q1GPiPXJRiCr2cx9cS-8" value="Transaction Verification" style="ellipse;whiteSpace=wrap;html=1;" vertex="1" parent="1">
          <mxGeometry x="330" y="990" width="120" height="80" as="geometry" />
        </mxCell>
        <mxCell id="O3Q1GPiPXJRiCr2cx9cS-9" value="Solve the problem" style="ellipse;whiteSpace=wrap;html=1;" vertex="1" parent="1">
          <mxGeometry x="490" y="890" width="120" height="80" as="geometry" />
        </mxCell>
        <mxCell id="O3Q1GPiPXJRiCr2cx9cS-10" value="" style="endArrow=none;html=1;rounded=0;shadow=0;labelBorderColor=none;jumpStyle=line;jumpSize=10;exitX=0.5;exitY=0.5;exitDx=0;exitDy=0;exitPerimeter=0;" edge="1" parent="1" source="O3Q1GPiPXJRiCr2cx9cS-3" target="O3Q1GPiPXJRiCr2cx9cS-8">
          <mxGeometry width="50" height="50" relative="1" as="geometry">
            <mxPoint x="120" y="1240" as="sourcePoint" />
            <mxPoint x="170" y="1190" as="targetPoint" />
          </mxGeometry>
        </mxCell>
        <mxCell id="O3Q1GPiPXJRiCr2cx9cS-12" value="" style="endArrow=block;html=1;strokeWidth=2;rounded=0;jumpSize=10;jumpStyle=line;dashed=1;endFill=1;" edge="1" parent="1" source="O3Q1GPiPXJRiCr2cx9cS-4" target="O3Q1GPiPXJRiCr2cx9cS-9">
          <mxGeometry width="50" height="50" relative="1" as="geometry">
            <mxPoint x="732.6961517913194" y="1028.1440314051006" as="sourcePoint" />
            <mxPoint x="557.3038482086699" y="991.8559685948971" as="targetPoint" />
          </mxGeometry>
        </mxCell>
        <mxCell id="O3Q1GPiPXJRiCr2cx9cS-13" value="&amp;lt;extends&amp;gt;" style="edgeLabel;html=1;align=center;verticalAlign=middle;resizable=0;points=[];" connectable="0" vertex="1" parent="O3Q1GPiPXJRiCr2cx9cS-12">
          <mxGeometry x="0.1667" y="1" relative="1" as="geometry">
            <mxPoint x="4" y="-19" as="offset" />
          </mxGeometry>
        </mxCell>
        <mxCell id="O3Q1GPiPXJRiCr2cx9cS-15" value="Verify answer" style="ellipse;whiteSpace=wrap;html=1;" vertex="1" parent="1">
          <mxGeometry x="490" y="1080" width="120" height="80" as="geometry" />
        </mxCell>
        <mxCell id="O3Q1GPiPXJRiCr2cx9cS-16" value="" style="endArrow=block;html=1;strokeWidth=2;rounded=0;jumpSize=10;jumpStyle=line;dashed=1;endFill=1;" edge="1" parent="1" source="O3Q1GPiPXJRiCr2cx9cS-8" target="O3Q1GPiPXJRiCr2cx9cS-15">
          <mxGeometry width="50" height="50" relative="1" as="geometry">
            <mxPoint x="443.9136384658832" y="1012.7432588832448" as="sourcePoint" />
            <mxPoint x="516.2277677515949" y="967.3576451552531" as="targetPoint" />
          </mxGeometry>
        </mxCell>
        <mxCell id="O3Q1GPiPXJRiCr2cx9cS-17" value="&amp;lt;intclude&amp;gt;" style="edgeLabel;html=1;align=center;verticalAlign=middle;resizable=0;points=[];" connectable="0" vertex="1" parent="O3Q1GPiPXJRiCr2cx9cS-16">
          <mxGeometry x="0.1667" y="1" relative="1" as="geometry">
            <mxPoint x="-26" y="-5" as="offset" />
          </mxGeometry>
        </mxCell>
        <mxCell id="O3Q1GPiPXJRiCr2cx9cS-18" value="" style="endArrow=block;html=1;strokeWidth=2;rounded=0;jumpSize=10;jumpStyle=line;dashed=1;endFill=1;" edge="1" parent="1" source="O3Q1GPiPXJRiCr2cx9cS-4" target="O3Q1GPiPXJRiCr2cx9cS-15">
          <mxGeometry width="50" height="50" relative="1" as="geometry">
            <mxPoint x="693.9351253580878" y="1014.3699193721691" as="sourcePoint" />
            <mxPoint x="606.0932767758484" y="965.6073759865824" as="targetPoint" />
          </mxGeometry>
        </mxCell>
        <mxCell id="O3Q1GPiPXJRiCr2cx9cS-19" value="&amp;lt;extends&amp;gt;" style="edgeLabel;html=1;align=center;verticalAlign=middle;resizable=0;points=[];" connectable="0" vertex="1" parent="O3Q1GPiPXJRiCr2cx9cS-18">
          <mxGeometry x="0.1667" y="1" relative="1" as="geometry">
            <mxPoint x="4" y="-19" as="offset" />
          </mxGeometry>
        </mxCell>
      </root>
    </mxGraphModel>
  </diagram>
</mxfile>
